{"asset":{"version":"2.0","generator":"THREE.GLTFExporter"},"scenes":[{"name":"default","nodes":[0]}],"scene":0,"nodes":[{"mesh":0}],"bufferViews":[{"buffer":0,"byteOffset":0,"byteLength":13176,"target":34962,"byteStride":12},{"buffer":0,"byteOffset":13176,"byteLength":13176,"target":34962,"byteStride":12},{"buffer":0,"byteOffset":26352,"byteLength":8784,"target":34962,"byteStride":8},{"buffer":0,"byteOffset":35136,"byteLength":3264,"target":34963}],"buffers":[{"byteLength":38400,"uri":"data:application/octet-stream;base64,"}],"accessors":[{"bufferView":0,"componentType":5126,"count":1098,"max":[16,1.5,10],"min":[-16,-0.5,-23.5],"type":"VEC3"},{"bufferView":1,"componentType":5126,"count":1098,"max":[0.24253562092781067,1,0.3162277638912201],"min":[-0.24253562092781067,0.9230769276618958,0],"type":"VEC3"},{"bufferView":2,"componentType":5126,"count":1098,"max":[0.8333333134651184,0.8333333134651184],"min":[0,0.3333333134651184],"type":"VEC2"},{"bufferView":3,"componentType":5123,"count":1632,"max":[1097],"min":[0],"type":"SCALAR"}],"materials":[{"pbrMetallicRoughness":{"metallicFactor":0,"roughnessFactor":1,"baseColorTexture":{"index":0}},"alphaMode":"MASK","alphaCutoff":0.01,"name":"texture_Textures"}],"textures":[{"sampler":0,"source":0,"name":"texture_Textures"}],"samplers":[{"magFilter":9728,"minFilter":9728,"wrapS":33071,"wrapT":33071}],"images":[{"mimeType":"image/png","uri":"data:image/png;base64,"}],"meshes":[{"primitives":[{"mode":4,"attributes":{"POSITION":0,"NORMAL":1,"TEXCOORD_0":2},"indices":3,"material":0}]}]}